<svg xmlns="http://www.w3.org/2000/svg" width="1920" height="1080" viewBox="0 0 1920 1080">
  <defs>
    <linearGradient id="grad1" x1="0%" y1="0%" x2="100%" y2="100%">
      <stop offset="0%" style="stop-color:#2ecc71;stop-opacity:0.8" />
      <stop offset="100%" style="stop-color:#27ae60;stop-opacity:0.9" />
    </linearGradient>
    <pattern id="pattern1" width="50" height="50" patternUnits="userSpaceOnUse">
      <circle cx="25" cy="25" r="1" fill="#fff" fill-opacity="0.3"/>
    </pattern>
  </defs>
  <rect width="100%" height="100%" fill="url(#grad1)"/>
  <rect width="100%" height="100%" fill="url(#pattern1)"/>
  
  <!-- Stylized farm elements -->
  <path d="M0,800 Q480,700 960,800 T1920,800 V1080 H0 Z" fill="#1d8348" fill-opacity="0.7"/>
  <path d="M0,850 Q480,750 960,850 T1920,850 V1080 H0 Z" fill="#196f3d" fill-opacity="0.5"/>
  
  <!-- Abstract plant shapes -->
  <g opacity="0.2">
    <path d="M200,700 Q250,650 300,700 T400,700" stroke="#fff" stroke-width="3" fill="none"/>
    <path d="M1600,750 Q1650,700 1700,750 T1800,750" stroke="#fff" stroke-width="3" fill="none"/>
    <path d="M500,800 Q550,750 600,800 T700,800" stroke="#fff" stroke-width="3" fill="none"/>
    <path d="M1200,780 Q1250,730 1300,780 T1400,780" stroke="#fff" stroke-width="3" fill="none"/>
  </g>
</svg>